<?xml version="1.0" standalone="no"?>
<!DOCTYPE svg PUBLIC "-//W3C//DTD SVG 20010904//EN"
 "http://www.w3.org/TR/2001/REC-SVG-20010904/DTD/svg10.dtd">
<svg version="1.0" xmlns="http://www.w3.org/2000/svg"
 width="202.000000pt" height="261.000000pt" viewBox="0 0 202.000000 261.000000"
 preserveAspectRatio="xMidYMid meet">
<metadata>
Created by potrace 1.14, written by Peter Selinger 2001-2017
</metadata>
<g transform="translate(0.000000,261.000000) scale(0.100000,-0.100000)"
fill="#000000" stroke="none">
<path d="M0 2255 c0 -195 3 -355 6 -355 7 0 134 100 164 129 8 8 39 30 70 49
30 19 78 56 106 81 59 52 59 52 137 105 31 21 57 43 57 48 0 5 4 7 9 4 5 -3
12 1 15 10 3 8 10 13 14 10 5 -3 18 5 29 17 24 26 159 124 211 152 20 11 48
28 62 38 13 9 35 17 49 17 13 0 94 -25 180 -56 86 -31 183 -65 216 -74 33 -10
110 -37 170 -60 61 -22 139 -52 175 -65 36 -12 97 -35 135 -49 39 -14 95 -34
125 -45 63 -22 72 -42 38 -83 -20 -24 -39 -31 -128 -49 -58 -11 -107 -22 -109
-25 -4 -3 0 -34 29 -229 6 -38 15 -113 20 -165 16 -163 21 -205 25 -217 5 -15
-8 -24 -43 -28 -28 -3 -28 -3 -41 78 -7 45 -22 145 -32 222 -10 77 -23 159
-28 183 -6 29 -5 42 3 42 7 0 7 3 1 8 -11 7 -12 14 -22 104 l-6 57 43 11 c39
10 144 30 163 30 4 0 7 4 7 9 0 5 -35 19 -77 32 -43 13 -141 45 -218 71 -77
27 -176 59 -220 72 -44 13 -152 49 -239 80 -184 66 -171 67 -295 -22 -42 -30
-97 -68 -123 -83 -26 -16 -92 -61 -145 -101 -54 -40 -109 -81 -123 -90 -14 -9
-50 -39 -80 -67 -30 -28 -85 -72 -122 -98 -38 -25 -67 -48 -65 -49 1 -1 22 2
47 7 25 5 78 14 118 20 84 11 102 4 102 -42 0 -16 9 -91 20 -167 11 -76 22
-178 25 -226 3 -49 13 -117 21 -153 8 -36 11 -69 7 -73 -4 -4 -22 -10 -40 -13
-36 -7 -31 -21 -54 133 -5 36 -19 117 -29 180 -11 63 -26 151 -33 195 l-12 80
-40 -2 c-22 -1 -83 -6 -135 -12 -95 -10 -95 -10 -118 15 l-22 25 0 -935 0
-936 1010 0 1010 0 0 1305 0 1305 -1010 0 -1010 0 0 -355z m986 -352 c8 -21
18 -73 21 -117 5 -87 31 -159 62 -176 12 -6 21 -17 21 -25 0 -19 -36 -20 -47
-1 -18 31 -114 96 -157 106 -54 12 -96 30 -96 41 0 5 31 7 70 6 57 -2 74 -7
95 -27 35 -33 43 -18 12 23 -24 32 -25 37 -17 103 5 38 9 77 10 87 0 27 8 20
26 -20z m669 -563 c3 -5 0 -18 -6 -28 -16 -26 17 -291 37 -299 26 -10 15 -33
-15 -33 -75 0 -141 91 -141 195 0 73 22 121 69 152 38 25 47 28 56 13z m116
-14 c46 -32 72 -85 77 -161 5 -77 -25 -139 -81 -168 -43 -22 -58 -16 -38 14
18 30 -15 281 -41 311 -24 28 -23 28 15 28 18 0 48 -11 68 -24z m-351 -51 c13
-12 20 -31 20 -55 0 -38 -13 -61 -44 -78 -18 -9 -18 -10 5 -17 69 -21 93 -102
45 -150 -25 -25 -85 -41 -112 -31 -15 6 -15 9 4 26 21 20 22 29 6 107 -2 12
-13 25 -24 28 -24 7 -26 30 -5 39 26 10 19 83 -10 110 -41 38 -33 49 35 44 39
-3 66 -11 80 -23z m-160 13 c12 -76 47 -354 46 -355 -5 -6 -146 -15 -146 -9 0
3 5 15 11 25 18 28 -15 280 -39 297 -9 7 -14 16 -9 20 10 11 136 30 137 22z
m-245 -194 c33 -85 66 -159 74 -164 26 -14 4 -24 -75 -36 -74 -10 -96 -5 -75
19 5 7 7 23 4 36 -5 20 -11 23 -44 18 -34 -4 -39 -2 -39 14 0 15 7 19 31 19
35 0 35 -5 -12 120 -39 100 -38 118 4 123 78 10 69 20 132 -149z m-420 97 c3
-6 -2 -14 -11 -19 -16 -9 -16 -20 4 -168 12 -87 20 -159 19 -161 -2 -1 -32 -7
-68 -12 -68 -9 -95 -1 -67 21 14 12 14 26 -3 152 -14 106 -23 142 -36 152 -24
17 -13 25 49 34 77 11 106 11 113 1z m1135 -281 c0 -11 -4 -20 -9 -20 -15 0
-22 -30 -11 -50 5 -10 33 -26 62 -36 80 -26 107 -42 128 -77 41 -67 12 -154
-64 -188 -36 -16 -41 -16 -44 -3 -2 9 6 26 17 38 12 12 21 27 21 33 0 18 -34
40 -90 58 -73 24 -95 39 -114 80 -22 46 -20 86 7 126 35 53 97 78 97 39z
m-220 -29 c0 -5 -6 -13 -13 -20 -11 -9 -10 -37 6 -163 16 -127 23 -156 40
-169 12 -10 16 -19 10 -22 -11 -7 -133 -26 -165 -27 -20 0 -25 26 -6 32 9 3 8
40 -6 159 -16 131 -22 156 -40 171 -11 9 -17 20 -13 24 17 17 187 31 187 15z
m-350 -53 c132 -67 148 -292 26 -367 -18 -12 -38 -21 -45 -21 -14 0 -15 32 -1
46 15 15 -27 306 -45 320 -21 16 -19 44 3 44 10 0 38 -10 62 -22z m-105 1 c4
-5 0 -18 -8 -27 -14 -15 -13 -33 6 -168 16 -109 27 -155 40 -168 41 -42 -29
-42 -94 -1 -53 34 -83 102 -84 190 0 57 4 77 24 109 35 55 100 92 116 65z
m-258 -73 c39 -46 28 -112 -24 -140 l-27 -14 32 -7 c59 -13 91 -90 61 -147
-21 -40 -149 -78 -149 -44 0 8 7 17 16 20 26 10 15 123 -14 147 -26 21 -27 26
-6 46 25 25 10 102 -24 131 -23 19 -25 24 -12 33 8 5 39 8 69 6 44 -3 59 -9
78 -31z m-177 20 c0 -2 11 -86 25 -186 14 -100 25 -188 25 -195 0 -9 -23 -15
-75 -20 -81 -8 -98 -3 -74 21 14 13 13 31 -4 167 -16 130 -22 154 -41 169 -19
15 -19 17 -3 23 9 4 41 11 70 15 70 10 77 11 77 6z m1309 -367 c1 -14 -15 -19
-81 -28 -46 -6 -115 -13 -153 -15 -39 -3 -102 -10 -140 -15 -39 -6 -86 -13
-105 -15 -128 -15 -390 -47 -415 -51 -101 -18 -168 -28 -314 -46 -90 -11 -167
-22 -171 -24 -13 -8 -18 44 -6 54 6 5 38 12 71 16 101 11 108 12 430 55 121
16 256 34 300 40 147 18 389 50 465 61 41 6 82 12 90 13 16 2 28 -17 29 -45z"/>
</g>
</svg>
