<?xml version="1.0" standalone="no"?>
<!DOCTYPE svg PUBLIC "-//W3C//DTD SVG 20010904//EN"
 "http://www.w3.org/TR/2001/REC-SVG-20010904/DTD/svg10.dtd">
<svg version="1.0" xmlns="http://www.w3.org/2000/svg"
 width="202.000000pt" height="256.000000pt" viewBox="0 0 202.000000 256.000000"
 preserveAspectRatio="xMidYMid meet">
<metadata>
Created by potrace 1.14, written by Peter Selinger 2001-2017
</metadata>
<g transform="translate(0.000000,256.000000) scale(0.100000,-0.100000)"
fill="#000000" stroke="none">
<path d="M850 2503 c-58 -30 -114 -64 -126 -74 -11 -10 -24 -19 -30 -19 -5 0
-22 -11 -38 -25 -16 -14 -33 -25 -37 -25 -5 0 -47 -25 -94 -56 -48 -30 -97
-59 -109 -64 -13 -4 -38 -23 -57 -40 -19 -17 -52 -41 -74 -52 -30 -15 -259
-164 -284 -185 -2 -1 4 -19 15 -39 l19 -36 137 5 137 6 5 -42 c3 -23 8 -82 11
-132 15 -217 32 -425 36 -429 2 -2 19 -1 38 1 l33 6 -6 106 c-3 58 -9 207 -12
331 -4 150 -10 227 -18 232 -15 11 -108 9 -186 -2 -35 -5 -66 -8 -67 -6 -2 2
25 20 60 40 35 21 88 56 118 79 73 56 298 196 395 247 43 23 91 51 106 62 15
10 56 32 92 48 l64 29 133 -60 c74 -33 143 -64 154 -69 11 -6 51 -21 90 -36
38 -14 92 -36 120 -48 27 -13 73 -33 100 -46 28 -12 95 -40 150 -62 136 -53
148 -58 143 -63 -2 -3 -40 -9 -84 -15 -43 -6 -91 -13 -106 -16 l-27 -5 4 -112
c5 -109 9 -189 20 -392 3 -55 8 -123 11 -150 l6 -51 35 4 35 4 -6 207 c-4 113
-10 255 -15 316 -5 60 -8 111 -7 112 1 2 53 9 115 17 63 9 115 17 115 18 1 2
12 16 24 32 29 38 28 43 -10 60 -31 13 -420 193 -553 256 -33 16 -73 32 -89
36 -15 4 -60 22 -99 41 -105 51 -253 113 -268 113 -8 -1 -61 -26 -119 -57z"/>
<path d="M946 1844 c-16 -83 -16 -86 4 -114 31 -44 24 -57 -12 -23 -20 19 -43
31 -58 31 -14 -1 -45 2 -69 6 -39 7 -43 6 -32 -8 7 -8 43 -26 79 -40 52 -20
80 -39 125 -86 53 -55 77 -67 77 -38 0 5 -11 23 -25 40 -33 39 -45 90 -44 184
2 67 -11 134 -24 134 -2 0 -11 -39 -21 -86z"/>
<path d="M1540 1267 c-53 -35 -74 -80 -74 -157 0 -54 5 -75 27 -112 25 -44 74
-78 111 -78 19 0 21 21 4 38 -7 7 -14 65 -18 144 -7 134 -5 158 11 158 5 0 9
7 9 15 0 22 -32 18 -70 -8z"/>
<path d="M1630 1276 c0 -8 4 -17 9 -20 21 -14 33 -297 13 -304 -19 -6 -14 -32
7 -32 30 0 83 42 105 85 45 86 14 220 -60 265 -37 23 -74 26 -74 6z"/>
<path d="M1230 1257 c0 -7 9 -20 20 -30 25 -21 29 -104 5 -113 -20 -8 -19 -20
5 -44 25 -25 29 -117 5 -126 -31 -12 -16 -34 23 -34 73 0 123 53 108 115 -8
32 -44 65 -70 65 -17 0 -15 4 12 20 90 55 43 160 -73 160 -22 0 -35 -5 -35
-13z"/>
<path d="M1065 1251 c-3 -6 2 -14 11 -19 22 -13 38 -279 17 -303 -22 -27 -15
-30 60 -27 l72 3 -2 40 c-1 22 -5 102 -9 178 l-6 137 -68 0 c-38 0 -71 -4 -75
-9z"/>
<path d="M803 1243 c-18 -7 -16 -26 16 -136 l29 -98 -28 -6 c-16 -3 -31 -11
-34 -19 -4 -10 4 -14 34 -14 30 0 40 -4 45 -21 4 -12 2 -26 -4 -32 -22 -22 -9
-27 68 -27 81 0 106 11 78 33 -9 7 -30 62 -47 122 -61 216 -56 205 -103 204
-23 0 -48 -3 -54 -6z"/>
<path d="M393 1223 c-35 -4 -42 -17 -19 -30 19 -11 35 -303 17 -303 -6 0 -11
-7 -11 -15 0 -17 21 -19 94 -9 l48 7 -7 162 c-7 147 -6 162 9 168 10 4 14 11
11 17 -6 10 -76 11 -142 3z"/>
<path d="M1361 838 c1 -7 -1 -21 -6 -31 -4 -10 -3 -28 3 -40 17 -36 32 -89 27
-96 -2 -4 -7 -23 -10 -42 -4 -25 -3 -30 5 -19 8 12 10 11 10 -8 0 -13 -4 -20
-10 -17 -5 3 -7 0 -4 -8 3 -8 0 -18 -5 -22 -6 -3 -9 -10 -6 -15 3 -4 1 -19 -4
-32 -8 -19 -10 -20 -10 -4 -1 15 -4 16 -16 6 -11 -9 -12 -17 -4 -31 8 -16 6
-19 -18 -17 -15 1 -31 6 -34 11 -3 5 -9 2 -12 -7 -6 -14 4 -16 71 -16 89 0
118 12 88 35 -16 12 -20 32 -24 135 -3 78 -8 117 -14 108 -6 -8 -7 4 -3 32 4
25 13 50 21 56 23 19 16 34 -16 34 -19 0 -30 -5 -29 -12z"/>
<path d="M900 816 c-31 -17 -63 -60 -78 -105 -35 -99 13 -233 94 -267 57 -24
84 -13 50 21 -18 18 -33 312 -17 328 32 32 -3 48 -49 23z"/>
<path d="M1600 369 c-63 -4 -180 -10 -260 -13 -237 -11 -511 -25 -580 -31 -36
-3 -128 -7 -205 -11 -77 -3 -143 -8 -147 -10 -4 -3 -8 -17 -8 -30 0 -26 0 -26
73 -20 39 4 134 8 210 11 76 3 152 7 170 10 49 7 447 25 692 31 271 6 263 5
257 44 -4 28 -7 30 -46 28 -22 -2 -93 -6 -156 -9z"/>
</g>
</svg>
